<svg width="100" height="100" viewBox="0 0 100 100" fill="none" xmlns="http://www.w3.org/2000/svg">
<g clip-path="url(#clip0_6_197)">
<path d="M50 100C77.6142 100 100 77.6142 100 50C100 22.3858 77.6142 0 50 0C22.3858 0 0 22.3858 0 50C0 77.6142 22.3858 100 50 100Z" fill="#8FC12C"/>
<path fill-rule="evenodd" clip-rule="evenodd" d="M61.785 15.0686C61.836 14.9959 61.936 14.9782 62.0085 15.0291L66.979 18.5093C67.0515 18.5602 67.0695 18.6604 67.0185 18.7331L60.1005 28.6127C63.464 29.6872 65.755 30.8461 65.755 30.8461C65.755 30.8461 60.1545 40.4796 50.6555 40.4796C41.1564 40.4796 34.4064 31.501 34.4064 31.501C34.4064 31.501 36.7998 29.9736 40.3477 28.6636L32.7598 19.6208C32.7028 19.5528 32.7117 19.4515 32.7796 19.3944L37.4276 15.4942C37.4957 15.4372 37.597 15.446 37.654 15.514L47.2615 26.9638C48.0842 26.8707 48.9223 26.8187 49.768 26.8187C50.9835 26.8187 52.1975 26.9111 53.383 27.068L61.785 15.0686ZM63.664 40.9358C66.199 39.1254 70.035 34.4001 70.035 34.4001C70.035 34.4001 79.8325 42.1644 79.8325 58.6275C79.8325 75.0905 62.894 84.999 62.894 84.999C62.894 84.999 54.8005 76.8255 52.814 66.465C50.8275 56.1045 55.753 44.6 55.753 44.6C55.753 44.6 61.129 42.7463 63.664 40.9358ZM36.3638 40.9358C33.8289 39.1254 29.9932 34.4001 29.9932 34.4001C29.9932 34.4001 20.1953 42.1644 20.1953 58.6275C20.1953 75.0905 37.1342 84.999 37.1342 84.999C37.1342 84.999 45.2273 76.8255 47.2141 66.465C49.2008 56.1045 44.2752 44.6 44.2752 44.6C44.2752 44.6 38.8989 42.7463 36.3638 40.9358Z" fill="white"/>
</g>
<defs>
<clipPath id="clip0_6_197">
<rect width="100" height="100" fill="white"/>
</clipPath>
</defs>
</svg>
