<svg width="100" height="100" viewBox="0 0 100 100" fill="none" xmlns="http://www.w3.org/2000/svg">
<g clip-path="url(#clip0_6_200)">
<path d="M50 99.6682C77.6142 99.6682 100 77.3938 100 49.9169C100 22.4401 77.6142 0.16568 50 0.16568C22.3858 0.16568 0 22.4401 0 49.9169C0 77.3938 22.3858 99.6682 50 99.6682Z" fill="#5A5366"/>
<mask id="mask0_6_200" style="mask-type:luminance" maskUnits="userSpaceOnUse" x="15" y="15" width="70" height="70">
<path d="M85 15.0912H15V84.7429H85V15.0912Z" fill="white"/>
</mask>
<g mask="url(#mask0_6_200)">
<path fill-rule="evenodd" clip-rule="evenodd" d="M46.3604 76.696C47.6903 76.899 49.0523 77.004 50.439 77.004C65.205 77.004 77.175 65.093 77.175 50.401C77.175 35.7083 65.205 23.7977 50.439 23.7977C49.4485 23.7977 48.4703 23.8513 47.5076 23.9558C54.8325 29.4774 59.675 39.0424 59.675 49.9169C59.675 61.3497 54.3225 71.3348 46.3604 76.696ZM49.953 84.7428C69.283 84.7428 84.953 69.1507 84.953 49.9169C84.953 30.6833 69.283 15.0912 49.953 15.0912C30.623 15.0912 14.953 30.6833 14.953 49.9169C14.953 69.1507 30.623 84.7428 49.953 84.7428Z" fill="white"/>
</g>
</g>
<defs>
<clipPath id="clip0_6_200">
<rect width="100" height="100" fill="white"/>
</clipPath>
</defs>
</svg>
