<svg width="100" height="100" viewBox="0 0 100 100" fill="none" xmlns="http://www.w3.org/2000/svg">
<g clip-path="url(#clip0_6_214)">
<path d="M50 99.8343C77.6142 99.8343 100 77.5599 100 50.0831C100 22.6062 77.6142 0.331848 50 0.331848C22.3858 0.331848 0 22.6062 0 50.0831C0 77.5599 22.3858 99.8343 50 99.8343Z" fill="#0A6CC4"/>
<mask id="mask0_6_214" style="mask-type:luminance" maskUnits="userSpaceOnUse" x="15" y="15" width="70" height="70">
<path d="M85 15.2571H15V84.9088H85V15.2571Z" fill="white"/>
</mask>
<g mask="url(#mask0_6_214)">
<path fill-rule="evenodd" clip-rule="evenodd" d="M53.377 49.9309C53.8515 49.6428 54.254 49.0397 54.5785 48.3693C58.8505 50.1065 61.8525 54.2115 61.8525 58.999C61.8525 65.3587 56.5545 70.5144 50.0195 70.5144C47.3367 70.5144 44.8625 69.6458 42.8778 68.1816C42.2267 67.8746 41.691 67.5801 41.2527 67.3388C40.5728 66.9647 40.127 66.7194 39.8478 66.7577C39.0317 66.8697 39.2686 67.6169 39.484 68.2955C39.6301 68.7567 39.7664 69.1861 39.5555 69.3632C39.3348 69.5488 38.6201 68.8707 37.7848 68.0786C36.6479 66.9995 35.2878 65.7095 34.6465 66.097C34.1394 66.4035 34.6317 67.2348 35.2344 68.2523L35.2791 68.3279C35.5336 68.7582 35.8287 69.196 36.0979 69.5955C36.6452 70.408 37.0859 71.0627 36.8654 71.1731C36.5988 71.3075 34.7413 70.0597 33.1761 68.3279C32.5719 67.6597 31.9867 66.9348 31.4429 66.2617C30.2525 64.7876 29.2607 63.5602 28.704 63.7055C28.0343 63.8806 28.5409 65.2547 29.2853 66.5776C29.6334 67.196 30.0429 67.8259 30.3974 68.3717C30.9488 69.2194 31.3673 69.8632 31.2155 69.9423C31.0107 70.0488 29.2086 68.3005 27.9846 66.097C27.2576 64.7881 26.6472 63.3418 26.153 62.1707C25.617 60.901 25.2178 59.9552 24.9549 59.8597C24.0415 59.5294 24.0415 61.3821 24.4079 64.0567C24.4556 64.4055 24.5268 64.7717 24.6144 65.1438C28.1669 76.5811 39.08 84.909 51.9915 84.909C67.785 84.909 80.588 72.4493 80.588 57.0796C80.588 42.4512 68.99 30.459 54.2545 29.3362C54.2735 28.6471 54.635 27.2806 54.635 27.2806C54.635 27.2806 57.236 21.0179 57.3735 19.6797C57.3825 19.5909 57.3935 19.4943 57.405 19.3915C57.567 17.9456 57.8685 15.2571 55.544 15.2571C54.3025 15.2571 53.7255 16.1759 53.065 17.2269C52.812 17.6303 52.546 18.0532 52.226 18.4511C49.9196 21.3167 46.0417 24.8952 43.8428 26.8017C39.1952 30.8313 34.6354 34.143 31.9759 36.0745C30.7664 36.9529 29.9499 37.546 29.6972 37.791C27.7933 39.6379 20.9666 51.8906 20.9666 51.8906C20.9666 51.8906 18.759 55.8214 19.5437 56.6184C20.3284 57.4159 22.2207 57.2333 22.2207 57.2333C22.2207 57.2333 47.6423 51.4304 49.9182 50.9727C50.531 50.8493 50.9635 50.7781 51.2955 50.7234C52.1975 50.5756 52.359 50.5488 53.377 49.9309ZM35.4032 42.4735C34.0386 43.7641 31.7755 46.8447 31.7755 46.8447C31.7755 46.8447 35.9815 47.1025 38.2979 44.9116C40.6145 42.7205 40.0838 38.9867 40.0838 38.9867C40.0838 38.9867 36.7677 41.1829 35.4032 42.4735Z" fill="white"/>
</g>
</g>
<defs>
<clipPath id="clip0_6_214">
<rect width="100" height="100" fill="white"/>
</clipPath>
</defs>
</svg>
