<svg width="100" height="100" viewBox="0 0 100 100" fill="none" xmlns="http://www.w3.org/2000/svg">
<g clip-path="url(#clip0_6_215)">
<path d="M50 100C77.6142 100 100 77.6142 100 50C100 22.3858 77.6142 0 50 0C22.3858 0 0 22.3858 0 50C0 77.6142 22.3858 100 50 100Z" fill="#F3D23B"/>
<path fill-rule="evenodd" clip-rule="evenodd" d="M35.8578 15.0798C35.8443 15.0407 35.8734 15 35.9147 15H60.5005C60.527 15 60.5505 15.0171 60.558 15.0423L71.851 51.5275C71.863 51.566 71.834 51.605 71.7935 51.605H55.4255C55.4055 51.605 55.391 51.624 55.3965 51.6435L64.784 84.689C64.8025 84.753 64.7185 84.795 64.6785 84.7415L28.1974 36.2279C28.1676 36.1883 28.1958 36.1316 28.2454 36.1316H43.1006C43.1212 36.1316 43.1357 36.1113 43.1289 36.0918L35.8578 15.0798Z" fill="white"/>
</g>
<defs>
<clipPath id="clip0_6_215">
<rect width="100" height="100" fill="white"/>
</clipPath>
</defs>
</svg>
