<svg width="100" height="100" viewBox="0 0 100 100" fill="none" xmlns="http://www.w3.org/2000/svg">
<g clip-path="url(#clip0_6_218)">
<path d="M50 99.8343C77.6142 99.8343 100 77.5599 100 50.0831C100 22.6062 77.6142 0.331848 50 0.331848C22.3858 0.331848 0 22.6062 0 50.0831C0 77.5599 22.3858 99.8343 50 99.8343Z" fill="#EC8EE6"/>
<mask id="mask0_6_218" style="mask-type:luminance" maskUnits="userSpaceOnUse" x="15" y="15" width="70" height="70">
<path d="M85 15.257H15V84.9088H85V15.257Z" fill="white"/>
</mask>
<g mask="url(#mask0_6_218)">
<path fill-rule="evenodd" clip-rule="evenodd" d="M29.0445 70.4856L40.2722 67.2463L49.9697 84.8896C49.9823 84.9119 50.0155 84.9119 50.028 84.8896L59.7255 67.2463L70.953 70.4856C70.9785 70.493 71.0015 70.4697 70.994 70.4448L67.738 59.494L84.9805 50.1105C85.0035 50.098 85.0035 50.0652 84.9805 50.0527L67.596 40.5922L70.994 29.1636C71.0015 29.1386 70.9785 29.1153 70.953 29.1225L59.462 32.4379L50.028 15.2742C50.0155 15.2513 49.9823 15.2513 49.9698 15.2742L40.5356 32.4379L29.0445 29.1225C29.0194 29.1153 28.996 29.1386 29.0035 29.1636L32.4017 40.5922L15.0172 50.0527C14.9942 50.0652 14.9942 50.098 15.0172 50.1105L32.2595 59.494L29.0035 70.4448C28.996 70.4697 29.0194 70.493 29.0445 70.4856ZM37.7571 50.202L45.7113 54.5308L50.0615 62.4453C50.074 62.4682 50.107 62.4682 50.12 62.4453L54.47 54.5308L62.424 50.202C62.447 50.1896 62.447 50.1567 62.424 50.1443L54.47 45.8155L50.12 37.9011C50.107 37.8781 50.074 37.8781 50.0615 37.9011L45.7113 45.8155L37.7571 50.1443C37.7341 50.1567 37.7341 50.1896 37.7571 50.202Z" fill="white"/>
</g>
</g>
<defs>
<clipPath id="clip0_6_218">
<rect width="100" height="100" fill="white"/>
</clipPath>
</defs>
</svg>
