<svg width="100" height="100" viewBox="0 0 100 100" fill="none" xmlns="http://www.w3.org/2000/svg">
<circle cx="50" cy="50" r="50" fill="#CD4069"/>
<g clip-path="url(#clip0_91_3)">
<path fill-rule="evenodd" clip-rule="evenodd" d="M27.0632 20.8195C27.9103 17.4748 30.9404 15 34.5485 15C37.2548 15 39.636 16.3925 41.0147 18.5H43.2723C44.6749 17.0606 46.6345 16.1667 48.803 16.1667C51.9823 16.1667 54.7128 18.0883 55.8965 20.8334H57.7867C58.9711 20.094 60.3705 19.6667 61.8696 19.6667C65.049 19.6667 67.7795 21.5883 68.9632 24.3334H74.1031C74.147 24.3334 74.1881 24.3452 74.2236 24.3658C74.4583 24.3443 74.6961 24.3334 74.9363 24.3334C79.2007 24.3334 82.6575 27.7903 82.6575 32.0546V55.2071L82.6576 55.25L82.6575 55.293V55.6264C82.6575 55.7676 82.6536 55.9083 82.646 56.0483C82.1814 72.1098 67.7391 85 49.9908 85C31.9496 85 17.3242 71.6805 17.3242 55.25C17.3242 47.3191 20.7319 40.1129 26.2866 34.7798C26.2728 42.5117 26.4034 50.5051 27.0054 50.3679C28.6173 50.0004 27.3579 26.0523 27.0632 20.8195Z" fill="white"/>
</g>
<defs>
<clipPath id="clip0_91_3">
<rect width="70" height="70" fill="white" transform="translate(15 15)"/>
</clipPath>
</defs>
</svg>
