<svg width="100" height="100" viewBox="0 0 100 100" fill="none" xmlns="http://www.w3.org/2000/svg">
<g clip-path="url(#clip0_6_225)">
<path d="M50 100C77.6142 100 100 77.6142 100 50C100 22.3858 77.6142 0 50 0C22.3858 0 0 22.3858 0 50C0 77.6142 22.3858 100 50 100Z" fill="#FE9C54"/>
<path fill-rule="evenodd" clip-rule="evenodd" d="M63.1605 69.058C64.025 65.8955 62.3465 59.394 62.3465 59.394C62.3465 59.394 61.129 64.6905 59.226 66.648C57.603 68.3175 55.6145 69.4755 52.7625 69.78C55.0945 68.6475 56.698 66.286 56.698 63.5565C56.698 59.7245 53.538 56.6185 49.6402 56.6185C45.7423 56.6185 42.5823 59.7245 42.5823 63.5565C42.5823 64.603 42.8182 65.595 43.2402 66.485C40.8023 64.543 40.4189 61.429 40.4189 61.429C40.4189 61.429 37.6966 72.7315 45.1978 78.048C52.699 83.365 67.393 78.795 67.393 78.795C67.393 78.795 46.3647 93.591 30.7823 77.4875C17.3594 63.615 27.2789 45.352 27.2789 45.352C27.2789 45.352 26.8505 47.0462 26.8505 49.0129C26.8505 50.9795 27.9168 52.476 27.9168 52.476C27.9168 52.476 31.0976 45.7715 33.573 43.0448C35.9158 40.4644 38.8527 38.3715 41.3893 36.5639C43.342 35.1723 45.0575 33.9498 46.0821 32.804C51.7255 26.4938 48.2652 15 48.2652 15C48.2652 15 54.6265 20.6082 56.4025 27.8512C57.0795 30.6122 56.644 33.7536 56.2545 36.5628C55.6225 41.1232 55.1115 44.8081 59.6785 44.569C67.059 44.1825 60.6455 32.804 60.6455 32.804C60.6455 32.804 77.387 41.6031 76.1365 56.9925C74.8855 72.382 57.8375 75.8805 57.8375 75.8805C57.8375 75.8805 62.2955 72.22 63.1605 69.058Z" fill="white"/>
</g>
<defs>
<clipPath id="clip0_6_225">
<rect width="100" height="100" fill="white"/>
</clipPath>
</defs>
</svg>
