<svg width="100" height="100" viewBox="0 0 100 100" fill="none" xmlns="http://www.w3.org/2000/svg">
<g clip-path="url(#clip0_6_228)">
<path d="M50 99.8343C77.6142 99.8343 100 77.5599 100 50.0831C100 22.6062 77.6142 0.331848 50 0.331848C22.3858 0.331848 0 22.6062 0 50.0831C0 77.5599 22.3858 99.8343 50 99.8343Z" fill="#8FA8DD"/>
<path fill-rule="evenodd" clip-rule="evenodd" d="M39.4333 80.2472C49.6876 80.2472 58.4665 74.5761 62.091 66.5378C62.135 66.4393 47.54 70.3119 48.0054 68.9428C48.2132 68.3318 57.16 65.0796 63.6785 61.2861C67.425 59.106 69.15 54.4905 69.15 54.4905C69.15 54.4905 62.8385 57.5398 59.6475 58.3134C53.2175 59.8721 47.5569 59.7045 47.5569 59.5423C47.5569 59.191 56.9555 57.4139 70.019 49.493C76.1635 45.7673 77.8325 39.3498 77.8325 39.3498C77.8325 39.3498 71.077 43.3537 66.993 44.6756C57.3085 47.8104 48.4708 48.755 48.4708 48.3308C48.4708 47.4227 56.2485 45.2946 64.4945 41.3189C68.782 39.2518 72.495 36.5511 76.798 33.5478C83.8385 28.634 85 19.8823 85 19.8823C85 19.8823 78.0555 24.3389 74.667 25.8189C60.6835 31.926 48.336 35.1294 39.4333 35.8229C25.9944 36.8699 15 46.1998 15 58.3134C15 70.4268 25.9391 80.2472 39.4333 80.2472Z" fill="white"/>
</g>
<defs>
<clipPath id="clip0_6_228">
<rect width="100" height="100" fill="white"/>
</clipPath>
</defs>
</svg>
