<svg width="100" height="100" viewBox="0 0 100 100" fill="none" xmlns="http://www.w3.org/2000/svg">
<g clip-path="url(#clip0_6_231)">
<path d="M50 100C77.6142 100 100 77.6142 100 50C100 22.3858 77.6142 0 50 0C22.3858 0 0 22.3858 0 50C0 77.6142 22.3858 100 50 100Z" fill="#5268AC"/>
<mask id="mask0_6_231" style="mask-type:luminance" maskUnits="userSpaceOnUse" x="15" y="15" width="70" height="70">
<path d="M85 15H15V85H85V15Z" fill="white"/>
</mask>
<g mask="url(#mask0_6_231)">
<path fill-rule="evenodd" clip-rule="evenodd" d="M65.4425 84.7575C59.1285 85.081 51.9 85.081 49.4433 84.7575C30.281 82.2365 15 68.2265 15 49.2891C15 30.3518 30.67 15 50 15C69.33 15 85 30.3518 85 49.2891C85 58.0965 81.6105 66.1285 76.0395 72.2015C74.5265 73.8505 76.6025 75.007 78.711 76.182C80.7795 77.335 82.88 78.5055 81.659 80.1755C80.314 82.016 73.0225 84.3695 65.4425 84.7575ZM45.0781 45.0029C45.0781 47.9618 42.6297 50.3605 39.6094 50.3605C36.5891 50.3605 34.1406 47.9618 34.1406 45.0029C34.1406 43.0184 35.2419 41.2861 36.8783 40.3601C36.9725 42.9401 39.0938 45.0028 41.6969 45.0028L45.0781 45.0029ZM62.028 40.3601C61.934 42.9401 59.8125 45.0028 57.2095 45.0028H53.828C53.828 47.9617 56.2765 50.3605 59.297 50.3605C62.317 50.3605 64.7655 47.9618 64.7655 45.0029C64.7655 43.0184 63.6645 41.2861 62.028 40.3601Z" fill="white"/>
</g>
</g>
<defs>
<clipPath id="clip0_6_231">
<rect width="100" height="100" fill="white"/>
</clipPath>
</defs>
</svg>
