<svg width="100" height="100" viewBox="0 0 100 100" fill="none" xmlns="http://www.w3.org/2000/svg">
<g clip-path="url(#clip0_19_240)">
<path d="M50 99.6682C77.6142 99.6682 100 77.3938 100 49.9169C100 22.4401 77.6142 0.165665 50 0.165665C22.3858 0.165665 0 22.4401 0 49.9169C0 77.3938 22.3858 99.6682 50 99.6682Z" fill="#63BB5B"/>
<path fill-rule="evenodd" clip-rule="evenodd" d="M28.318 75.0363C28.0778 74.8114 27.8401 74.5821 27.6053 74.3488C15.207 62.0119 15.207 42.0105 27.6053 29.6739C40.0035 17.3373 79.509 16.512 79.509 16.512C79.509 16.512 84.9015 62.0119 72.5035 74.3488C61.492 85.305 44.4048 86.5309 32.034 78.0259L42.0019 65.8542L57.9365 62.4313L44.9292 61.1373L53.1955 52.7627L62.605 50.7114L55.1645 48.519L62.605 35.1632L52.0215 46.9752L47.9347 41.2367L49.3734 50.7114L42.0019 58.9801L38.5849 48.5188V62.4313L28.318 75.0363Z" fill="white"/>
</g>
<defs>
<clipPath id="clip0_19_240">
<rect width="100" height="100" fill="white"/>
</clipPath>
</defs>
</svg>
