<svg width="100" height="100" viewBox="0 0 100 100" fill="none" xmlns="http://www.w3.org/2000/svg">
<g clip-path="url(#clip0_19_243)">
<path d="M50 99.8343C77.6142 99.8343 100 77.5599 100 50.0831C100 22.6062 77.6142 0.331848 50 0.331848C22.3858 0.331848 0 22.6062 0 50.0831C0 77.5599 22.3858 99.8343 50 99.8343Z" fill="#D97745"/>
<mask id="mask0_19_243" style="mask-type:luminance" maskUnits="userSpaceOnUse" x="15" y="15" width="70" height="70">
<path d="M85 15.257H15V84.9087H85V15.257Z" fill="white"/>
</mask>
<g mask="url(#mask0_19_243)">
<path fill-rule="evenodd" clip-rule="evenodd" d="M30.417 75.0806C30.398 75.0806 30.3847 75.0617 30.391 75.0438L48.2622 24.7979C48.2662 24.787 48.2765 24.7796 48.2882 24.7796H67.366C67.378 24.7796 67.3885 24.787 67.392 24.798L84.998 75.0443C85.0045 75.0622 84.991 75.0806 84.972 75.0806H30.954H30.417ZM15.0275 75.2771C15.0084 75.2771 14.9951 75.2582 15.0018 75.2403L28.31 39.8876C28.314 39.8768 28.3242 39.8697 28.3357 39.8697H39.899C39.9181 39.8697 39.9314 39.8887 39.9248 39.9065L27.0562 75.2592C27.0523 75.2696 27.0419 75.2771 27.0303 75.2771H15.0275Z" fill="white"/>
</g>
</g>
<defs>
<clipPath id="clip0_19_243">
<rect width="100" height="100" fill="white"/>
</clipPath>
</defs>
</svg>
