<svg width="100" height="100" viewBox="0 0 100 100" fill="none" xmlns="http://www.w3.org/2000/svg">
<g clip-path="url(#clip0_19_282)">
<path d="M50 99.8343C77.6142 99.8343 100 77.5599 100 50.0831C100 22.6062 77.6142 0.331848 50 0.331848C22.3858 0.331848 0 22.6062 0 50.0831C0 77.5599 22.3858 99.8343 50 99.8343Z" fill="#AB6AC8"/>
<mask id="mask0_19_282" style="mask-type:luminance" maskUnits="userSpaceOnUse" x="15" y="15" width="70" height="70">
<path d="M85 15.257H15V84.9087H85V15.257Z" fill="white"/>
</mask>
<g mask="url(#mask0_19_282)">
<path fill-rule="evenodd" clip-rule="evenodd" d="M73.491 68.7811C80.56 63.1572 85 55.0313 85 45.9949C85 29.0187 69.33 15.257 50 15.257C30.67 15.257 15 29.0187 15 45.9949C15 54.705 19.1253 62.5691 25.7537 68.1627C25.352 69.5428 25.1315 71.0438 25.1315 72.6134C25.1315 79.404 29.2553 84.909 34.3422 84.909C37.6475 84.909 40.5462 82.5846 42.1711 79.0935C43.796 82.5846 46.6947 84.909 50 84.909C53.013 84.909 55.688 82.9776 57.3685 79.992C59.049 82.9776 61.724 84.909 64.737 84.909C69.8235 84.909 73.9475 79.404 73.9475 72.6134C73.9475 71.2756 73.787 69.9871 73.491 68.7811ZM70.263 46.6045C70.263 55.2229 60.985 62.2099 49.5396 62.2099C38.0941 62.2099 28.8158 55.2229 28.8158 46.6045C28.8158 37.9859 38.0941 30.999 49.5396 30.999C60.985 30.999 70.263 37.9859 70.263 46.6045Z" fill="white"/>
</g>
</g>
<defs>
<clipPath id="clip0_19_282">
<rect width="100" height="100" fill="white"/>
</clipPath>
</defs>
</svg>
