<svg width="100" height="100" viewBox="0 0 100 100" fill="none" xmlns="http://www.w3.org/2000/svg">
<g clip-path="url(#clip0_19_258)">
<path d="M50 99.6682C77.6142 99.6682 100 77.3938 100 49.9169C100 22.4401 77.6142 0.165665 50 0.165665C22.3858 0.165665 0 22.4401 0 49.9169C0 77.3938 22.3858 99.6682 50 99.6682Z" fill="#F97176"/>
<mask id="mask0_19_258" style="mask-type:luminance" maskUnits="userSpaceOnUse" x="15" y="15" width="70" height="70">
<path d="M85 15.0912H15V84.7429H85V15.0912Z" fill="white"/>
</mask>
<g mask="url(#mask0_19_258)">
<path fill-rule="evenodd" clip-rule="evenodd" d="M77.3335 72.9323C77.3335 72.9323 68.507 79.9766 50.9425 77.0616C37.6164 74.8502 30.5089 60.2333 30.5089 52.3766C30.5089 33.7487 44.3648 29.5096 53.7325 29.5096C63.1 29.5096 69.211 38.597 69.211 45.6329C69.211 52.6686 64.2095 58.8228 56.4265 58.8228C48.6437 58.8228 46.3386 53.386 46.3386 48.3877C46.3386 43.3893 50.403 41.6283 54.1095 41.6283C57.816 41.6283 59.085 44.7771 59.085 47.4833C59.085 50.1895 56.975 51.1587 55.215 51.1587C53.4545 51.1587 53.2805 50.2751 52.607 49.3466C51.9335 48.4181 53.466 44.9034 50.9425 44.9034C48.4186 44.9034 47.9481 48.9439 47.9481 48.9439C47.9481 48.9439 48.8682 56.7432 56.4265 56.6089C63.985 56.4741 67.571 50.6596 66.5285 44.9034C65.4865 39.1468 59.872 33.0299 50.018 34.2659C40.1643 35.5019 36.1411 45.4088 37.9144 55.996C39.6878 66.583 52.4345 72.7174 62.4565 70.5104C72.479 68.3034 82.461 61.084 82.461 42.7795C82.461 24.4749 66.529 13.4722 47.531 15.2855C28.5332 17.0989 16.7403 33.6253 17.4951 53.482C18.25 73.3393 37.186 84.1537 53.1985 84.7109C69.211 85.2686 79.027 76.0457 79.027 76.0457C79.027 76.0457 81.2345 74.0865 80.369 72.5572C79.5035 71.0273 77.3335 72.9323 77.3335 72.9323Z" fill="white"/>
</g>
</g>
<defs>
<clipPath id="clip0_19_258">
<rect width="100" height="100" fill="white"/>
</clipPath>
</defs>
</svg>
