<svg width="100" height="100" viewBox="0 0 100 100" fill="none" xmlns="http://www.w3.org/2000/svg">
<g clip-path="url(#clip0_19_265)">
<path d="M50 100C77.6142 100 100 77.6142 100 50C100 22.3858 77.6142 0 50 0C22.3858 0 0 22.3858 0 50C0 77.6142 22.3858 100 50 100Z" fill="#C6B78B"/>
<mask id="mask0_19_265" style="mask-type:luminance" maskUnits="userSpaceOnUse" x="15" y="15" width="70" height="70">
<path d="M85 15H15V85H85V15Z" fill="white"/>
</mask>
<g mask="url(#mask0_19_265)">
<path fill-rule="evenodd" clip-rule="evenodd" d="M69.023 48.4628C69.019 48.4574 69.017 48.4506 69.0185 48.4438L73.484 22.4035C73.486 22.3916 73.4965 22.3828 73.5085 22.3828H74.922C74.933 22.3828 74.9425 22.3899 74.946 22.4002L85.007 54.256C85.01 54.266 85.0065 54.277 84.9985 54.2835L77.5805 60.075C77.569 60.084 77.553 60.0815 77.545 60.0705L69.023 48.4628ZM14.8633 65.7255C14.8633 65.7365 14.8702 65.746 14.8805 65.7495L30.1723 70.7495C30.1797 70.752 30.188 70.7505 30.1944 70.746L64.3755 47.1486C64.381 47.1446 64.385 47.1385 64.386 47.1316L68.0515 22.5371C68.0535 22.522 68.042 22.5084 68.0265 22.5084H37.7508C37.7433 22.5084 37.7363 22.5117 37.7315 22.5174L14.8691 50.0975C14.8653 50.102 14.8633 50.1075 14.8633 50.1135V65.7255ZM36.5446 72.0235L53.2505 77.496C53.258 77.498 53.2665 77.497 53.273 77.4925L73.1625 63.2255C73.1735 63.2175 73.1765 63.2025 73.169 63.191L65.713 52.096C65.705 52.084 65.6895 52.081 65.678 52.089L36.5446 72.0235Z" fill="white"/>
</g>
</g>
<defs>
<clipPath id="clip0_19_265">
<rect width="100" height="100" fill="white"/>
</clipPath>
</defs>
</svg>
