<svg width="100" height="100" viewBox="0 0 100 100" fill="none" xmlns="http://www.w3.org/2000/svg">
<g clip-path="url(#clip0_19_272)">
<path d="M50 99.8343C77.6142 99.8343 100 77.5599 100 50.0831C100 22.6062 77.6142 0.331848 50 0.331848C22.3858 0.331848 0 22.6062 0 50.0831C0 77.5599 22.3858 99.8343 50 99.8343Z" fill="#5A8EA1"/>
<path fill-rule="evenodd" clip-rule="evenodd" d="M15.007 49.8826C14.9977 49.8667 14.9977 49.8473 15.007 49.8313L32.6087 19.9074C32.6179 19.8918 32.6347 19.8823 32.6527 19.8823H67.54C67.5585 19.8823 67.575 19.8919 67.5845 19.9076L84.993 49.8313C85.002 49.8473 85.002 49.8667 84.993 49.8821L67.5845 79.7726C67.575 79.7881 67.5585 79.7975 67.54 79.7975H32.6527C32.6347 79.7975 32.6179 79.7881 32.6087 79.7726L15.007 49.8826ZM66.217 49.8398C66.217 58.7488 58.959 65.9711 50.0055 65.9711C41.0521 65.9711 33.7938 58.7488 33.7938 49.8398C33.7938 40.931 41.0521 33.709 50.0055 33.709C58.959 33.709 66.217 40.931 66.217 49.8398Z" fill="white"/>
</g>
<defs>
<clipPath id="clip0_19_272">
<rect width="100" height="100" fill="white"/>
</clipPath>
</defs>
</svg>
