<svg width="100" height="100" viewBox="0 0 100 100" fill="none" xmlns="http://www.w3.org/2000/svg">
<g clip-path="url(#clip0_19_275)">
<path d="M100 49.9169C100 77.394 77.614 99.6682 50 99.6682C22.3857 99.6682 0 77.394 0 49.9169C0 22.4402 22.3857 0.165802 50 0.165802C77.614 0.165802 100 22.4402 100 49.9169Z" fill="#4C8FD5" fill-opacity="0.835294"/>
<mask id="mask0_19_275" style="mask-type:luminance" maskUnits="userSpaceOnUse" x="15" y="15" width="70" height="70">
<path d="M85 15.0912H15V84.7429H85V15.0912Z" fill="white"/>
</mask>
<g mask="url(#mask0_19_275)">
<path fill-rule="evenodd" clip-rule="evenodd" d="M72.719 62.2303C72.719 74.6622 62.5525 84.7398 50.012 84.7398C37.471 84.7398 27.3047 74.6622 27.3047 62.2303C27.3047 50.1398 48.7835 16.9342 49.9615 15.1221C49.9884 15.0808 50.0355 15.0808 50.062 15.1221C51.24 16.9342 72.719 50.1398 72.719 62.2303ZM46.2266 77.5234C34.7039 75.0149 36.6757 62.3144 36.6757 62.3144C36.6757 62.3144 39.8221 69.9811 47.4577 72.4646C55.093 74.9477 64.3205 71.3054 64.3205 71.3054C64.3205 71.3054 57.749 80.0318 46.2266 77.5234Z" fill="white"/>
</g>
</g>
<defs>
<clipPath id="clip0_19_275">
<rect width="100" height="100" fill="white"/>
</clipPath>
</defs>
</svg>
