<svg width="200" height="4054" viewBox="0 0 200 4054" fill="none" xmlns="http://www.w3.org/2000/svg">
<path d="M200 3953.33C200 4008.56 155.228 4053.33 100 4053.33C44.7715 4053.33 0 4008.56 0 3953.33C0 3898.1 44.7715 3853.33 100 3853.33C155.228 3853.33 200 3898.1 200 3953.33Z" fill="#4C8FD5" fill-opacity="0.835294"/>
<g clip-path="url(#clip0_6_190)">
<path fill-rule="evenodd" clip-rule="evenodd" d="M145.438 3978.08C145.438 4003.07 125.105 4023.33 100.024 4023.33C74.9419 4023.33 54.6094 4003.07 54.6094 3978.08C54.6094 3953.78 97.567 3887.04 99.9229 3883.4C99.9768 3883.31 100.071 3883.31 100.124 3883.4C102.48 3887.04 145.438 3953.78 145.438 3978.08ZM92.4531 4008.82C69.4078 4003.78 73.3513 3978.25 73.3513 3978.25C73.3513 3978.25 79.6442 3993.66 94.9154 3998.65C110.186 4003.65 128.641 3996.32 128.641 3996.32C128.641 3996.32 115.498 4013.86 92.4531 4008.82Z" fill="white"/>
</g>
<circle cx="100" cy="3273.33" r="100" fill="#F97176"/>
<g clip-path="url(#clip1_6_190)">
<path fill-rule="evenodd" clip-rule="evenodd" d="M154.667 3319.59C154.667 3319.59 137.014 3333.75 101.885 3327.89C75.2329 3323.45 61.0179 3294.07 61.0179 3278.28C61.0179 3240.83 88.7297 3232.31 107.465 3232.31C126.2 3232.31 138.422 3250.58 138.422 3264.72C138.422 3278.86 128.419 3291.23 112.853 3291.23C97.2875 3291.23 92.6773 3280.31 92.6773 3270.26C92.6773 3260.21 100.806 3256.67 108.219 3256.67C115.632 3256.67 118.17 3263 118.17 3268.44C118.17 3273.88 113.95 3275.83 110.43 3275.83C106.909 3275.83 106.561 3274.05 105.214 3272.19C103.867 3270.32 106.932 3263.26 101.885 3263.26C96.8372 3263.26 95.8963 3271.38 95.8963 3271.38C95.8963 3271.38 97.7365 3287.05 112.853 3286.78C127.97 3286.51 135.142 3274.83 133.057 3263.26C130.973 3251.69 119.744 3239.39 100.036 3241.87C80.3286 3244.36 72.2822 3264.27 75.8289 3285.55C79.3757 3306.83 104.869 3319.16 124.913 3314.73C144.958 3310.29 164.922 3295.78 164.922 3258.99C164.922 3222.19 133.058 3200.08 95.062 3203.72C57.0665 3207.37 33.4806 3240.59 34.9903 3280.5C36.5 3320.41 74.3721 3342.15 106.397 3343.27C138.422 3344.39 158.054 3325.85 158.054 3325.85C158.054 3325.85 162.469 3321.91 160.738 3318.84C159.007 3315.77 154.667 3319.59 154.667 3319.59Z" fill="white"/>
</g>
<circle cx="100" cy="3726.67" r="100" fill="#5A8EA1"/>
<path fill-rule="evenodd" clip-rule="evenodd" d="M30.014 3726.26C29.9954 3726.23 29.9953 3726.19 30.014 3726.16L65.2174 3666.01C65.2357 3665.98 65.2693 3665.96 65.3054 3665.96H135.08C135.117 3665.96 135.15 3665.98 135.169 3666.01L169.986 3726.16C170.004 3726.19 170.004 3726.23 169.986 3726.26L135.169 3786.34C135.15 3786.37 135.117 3786.39 135.08 3786.39H65.3054C65.2693 3786.39 65.2357 3786.37 65.2174 3786.34L30.014 3726.26ZM132.434 3726.18C132.434 3744.09 117.918 3758.6 100.011 3758.6C82.1041 3758.6 67.5875 3744.09 67.5875 3726.18C67.5875 3708.27 82.1041 3693.76 100.011 3693.76C117.918 3693.76 132.434 3708.27 132.434 3726.18Z" fill="white"/>
<circle cx="100" cy="3500" r="100" fill="#C6B78B"/>
<g clip-path="url(#clip2_6_190)">
<path fill-rule="evenodd" clip-rule="evenodd" d="M138.046 3496.93C138.038 3496.91 138.034 3496.9 138.037 3496.89L146.968 3444.81C146.972 3444.78 146.993 3444.77 147.017 3444.77H149.844C149.866 3444.77 149.885 3444.78 149.892 3444.8L170.014 3508.51C170.02 3508.53 170.013 3508.55 169.997 3508.57L155.161 3520.15C155.138 3520.17 155.106 3520.16 155.09 3520.14L138.046 3496.93ZM29.7266 3531.45C29.7266 3531.47 29.7405 3531.49 29.761 3531.5L60.3447 3541.5C60.3595 3541.5 60.3759 3541.5 60.3888 3541.49L128.751 3494.3C128.762 3494.29 128.77 3494.28 128.772 3494.26L136.103 3445.07C136.107 3445.04 136.084 3445.02 136.053 3445.02H75.5016C75.4866 3445.02 75.4727 3445.02 75.4631 3445.03L29.7381 3500.2C29.7306 3500.2 29.7266 3500.22 29.7266 3500.23V3531.45ZM73.0891 3544.05L106.501 3554.99C106.516 3555 106.533 3554.99 106.546 3554.98L146.325 3526.45C146.347 3526.44 146.353 3526.4 146.338 3526.38L131.426 3504.19C131.41 3504.17 131.379 3504.16 131.356 3504.18L73.0891 3544.05Z" fill="white"/>
</g>
<circle cx="100" cy="1913.33" r="100" fill="#63BB5B"/>
<path fill-rule="evenodd" clip-rule="evenodd" d="M56.6361 1963.82C56.1556 1963.37 55.6803 1962.91 55.2106 1962.44C30.4141 1937.64 30.4141 1897.44 55.2106 1872.64C80.0071 1847.85 159.018 1846.19 159.018 1846.19C159.018 1846.19 169.803 1937.64 145.007 1962.44C122.984 1984.46 88.8096 1986.93 64.0681 1969.83L84.0039 1945.37L115.873 1938.49L89.8585 1935.89L106.391 1919.05L125.21 1914.93L110.329 1910.52L125.21 1883.68L104.043 1907.42L95.8695 1895.89L98.7468 1914.93L84.0039 1931.55L77.1699 1910.52V1938.49L56.6361 1963.82Z" fill="white"/>
<circle cx="100" cy="3046.67" r="100" fill="#AB6AC8"/>
<g clip-path="url(#clip3_6_190)">
<path fill-rule="evenodd" clip-rule="evenodd" d="M146.982 3084.25C161.12 3072.95 170 3056.61 170 3038.45C170 3004.33 138.66 2976.67 100 2976.67C61.34 2976.67 30 3004.33 30 3038.45C30 3055.96 38.2506 3071.76 51.5073 3083.01C50.7039 3085.78 50.2631 3088.8 50.2631 3091.95C50.2631 3105.6 58.5105 3116.67 68.6843 3116.67C75.2949 3116.67 81.0923 3111.99 84.3421 3104.98C87.592 3111.99 93.3894 3116.67 100 3116.67C106.026 3116.67 111.376 3112.78 114.737 3106.78C118.098 3112.78 123.448 3116.67 129.474 3116.67C139.647 3116.67 147.895 3105.6 147.895 3091.95C147.895 3089.26 147.574 3086.67 146.982 3084.25ZM140.526 3039.67C140.526 3057 121.97 3071.04 99.0791 3071.04C76.1882 3071.04 57.6317 3057 57.6317 3039.67C57.6317 3022.35 76.1882 3008.31 99.0791 3008.31C121.97 3008.31 140.526 3022.35 140.526 3039.67Z" fill="white"/>
</g>
<circle cx="100" cy="2593.33" r="100" fill="#74CEC0"/>
<path fill-rule="evenodd" clip-rule="evenodd" d="M135.083 2534.01L135.514 2571.84L102.518 2587.68L102.111 2551.96L135.083 2534.01Z" fill="white"/>
<path fill-rule="evenodd" clip-rule="evenodd" d="M168.16 2593.62L135.496 2612.3L102.813 2593.59L135.479 2576.43L168.16 2593.62Z" fill="white"/>
<path fill-rule="evenodd" clip-rule="evenodd" d="M97.0031 2593.62L64.3397 2612.3L31.6567 2593.59L64.3227 2576.43L97.0031 2593.62Z" fill="white"/>
<path fill-rule="evenodd" clip-rule="evenodd" d="M63.9727 2533.85L97.8751 2550.64L97.0083 2587.23L64.9981 2571.38L63.9727 2533.85Z" fill="white"/>
<path fill-rule="evenodd" clip-rule="evenodd" d="M136.006 2652.81L102.103 2636.02L102.97 2599.43L134.98 2615.29L136.006 2652.81Z" fill="white"/>
<path fill-rule="evenodd" clip-rule="evenodd" d="M65.1436 2653.15L64.7126 2615.32L97.7086 2599.48L98.1155 2635.2L65.1436 2653.15Z" fill="white"/>
<circle cx="100" cy="2366.67" r="100" fill="#D97745"/>
<g clip-path="url(#clip4_6_190)">
<path fill-rule="evenodd" clip-rule="evenodd" d="M60.8339 2416.91C60.7959 2416.91 60.7694 2416.87 60.782 2416.84L96.5243 2315.84C96.5323 2315.82 96.553 2315.81 96.5763 2315.81H134.732C134.756 2315.81 134.777 2315.82 134.784 2315.84L169.996 2416.84C170.009 2416.87 169.982 2416.91 169.944 2416.91H61.908H60.8339ZM30.055 2417.31C30.0167 2417.31 29.9901 2417.27 30.0035 2417.23L56.6199 2346.17C56.6279 2346.15 56.6484 2346.14 56.6714 2346.14H79.7979C79.8362 2346.14 79.8627 2346.18 79.8496 2346.21L54.1123 2417.27C54.1045 2417.29 54.0838 2417.31 54.0606 2417.31H30.055Z" fill="white"/>
</g>
<circle cx="100" cy="2820" r="100" fill="#9099A1"/>
<path fill-rule="evenodd" clip-rule="evenodd" d="M161.523 2820C161.523 2853.98 133.978 2881.52 100 2881.52C66.0216 2881.52 38.4766 2853.98 38.4766 2820C38.4766 2786.02 66.0216 2758.48 100 2758.48C133.978 2758.48 161.523 2786.02 161.523 2820ZM135.156 2820C135.156 2839.42 119.416 2855.16 100 2855.16C80.5837 2855.16 64.8439 2839.42 64.8439 2820C64.8439 2800.58 80.5837 2784.84 100 2784.84C119.416 2784.84 135.156 2800.58 135.156 2820Z" fill="white"/>
<circle cx="100" cy="2140" r="100" fill="#5268AC"/>
<g clip-path="url(#clip5_6_190)">
<path fill-rule="evenodd" clip-rule="evenodd" d="M130.885 2209.52C118.257 2210.16 103.8 2210.16 98.8866 2209.52C60.5621 2204.47 30 2176.45 30 2138.58C30 2100.7 61.34 2070 100 2070C138.66 2070 170 2100.7 170 2138.58C170 2156.19 163.221 2172.26 152.079 2184.4C149.053 2187.7 153.205 2190.01 157.422 2192.36C161.559 2194.67 165.76 2197.01 163.318 2200.35C160.628 2204.03 146.045 2208.74 130.885 2209.52ZM90.1562 2130.01C90.1562 2135.92 85.2593 2140.72 79.2188 2140.72C73.1782 2140.72 68.2812 2135.92 68.2812 2130.01C68.2812 2126.04 70.4838 2122.57 73.7566 2120.72C73.945 2125.88 78.1876 2130.01 83.3939 2130.01L90.1562 2130.01ZM124.056 2120.72C123.868 2125.88 119.625 2130.01 114.419 2130.01H107.656C107.656 2135.92 112.553 2140.72 118.594 2140.72C124.634 2140.72 129.531 2135.92 129.531 2130.01C129.531 2126.04 127.329 2122.57 124.056 2120.72Z" fill="white"/>
</g>
<circle cx="100" cy="1686.67" r="100" fill="#8FA8DD"/>
<path fill-rule="evenodd" clip-rule="evenodd" d="M78.8666 1747.3C99.3752 1747.3 116.933 1735.9 124.182 1719.74C124.27 1719.54 95.08 1727.33 96.0108 1724.58C96.4264 1723.35 114.32 1716.81 127.357 1709.19C134.85 1704.8 138.3 1695.53 138.3 1695.53C138.3 1695.53 125.677 1701.65 119.295 1703.21C106.435 1706.34 95.1139 1706.01 95.1139 1705.68C95.1139 1704.97 113.911 1701.4 140.038 1685.48C152.327 1677.99 155.665 1665.09 155.665 1665.09C155.665 1665.09 142.154 1673.14 133.986 1675.8C114.617 1682.1 96.9416 1684 96.9416 1683.14C96.9416 1681.32 112.497 1677.04 128.989 1669.05C137.564 1664.9 144.99 1659.47 153.596 1653.43C167.677 1643.55 170 1625.96 170 1625.96C170 1625.96 156.111 1634.92 149.334 1637.9C121.367 1650.17 96.672 1656.61 78.8666 1658C51.9888 1660.11 30 1678.86 30 1703.21C30 1727.56 51.8783 1747.3 78.8666 1747.3Z" fill="white"/>
<circle cx="100" cy="1460" r="100" fill="#FE9C54"/>
<path fill-rule="evenodd" clip-rule="evenodd" d="M126.321 1498.12C128.05 1491.79 124.693 1478.79 124.693 1478.79C124.693 1478.79 122.258 1489.38 118.452 1493.3C115.206 1496.64 111.229 1498.95 105.525 1499.56C110.189 1497.29 113.396 1492.57 113.396 1487.11C113.396 1479.45 107.076 1473.24 99.2803 1473.24C91.4846 1473.24 85.1646 1479.45 85.1646 1487.11C85.1646 1489.21 85.6363 1491.19 86.4804 1492.97C81.6045 1489.09 80.8378 1482.86 80.8378 1482.86C80.8378 1482.86 75.3931 1505.46 90.3955 1516.1C105.398 1526.73 134.786 1517.59 134.786 1517.59C134.786 1517.59 92.7293 1547.18 61.5645 1514.97C34.7187 1487.23 54.5577 1450.7 54.5577 1450.7C54.5577 1450.7 53.7009 1454.09 53.7009 1458.03C53.7009 1461.96 55.8336 1464.95 55.8336 1464.95C55.8336 1464.95 62.1951 1451.54 67.1459 1446.09C71.8316 1440.93 77.7053 1436.74 82.7786 1433.13C86.6839 1430.34 90.115 1427.9 92.1641 1425.61C103.451 1412.99 96.5304 1390 96.5304 1390C96.5304 1390 109.253 1401.22 112.805 1415.7C114.159 1421.22 113.288 1427.51 112.509 1433.13C111.245 1442.25 110.223 1449.62 119.357 1449.14C134.118 1448.36 121.291 1425.61 121.291 1425.61C121.291 1425.61 154.774 1443.21 152.273 1473.98C149.771 1504.76 115.675 1511.76 115.675 1511.76C115.675 1511.76 124.591 1504.44 126.321 1498.12Z" fill="white"/>
<circle cx="100" cy="1233.33" r="100" fill="#CD4069"/>
<g clip-path="url(#clip6_6_190)">
<path fill-rule="evenodd" clip-rule="evenodd" d="M54.1264 1174.97C55.8207 1168.28 61.8809 1163.33 69.0969 1163.33C74.5096 1163.33 79.2721 1166.12 82.0294 1170.33H86.5447C89.3499 1167.45 93.2691 1165.67 97.6061 1165.67C103.965 1165.67 109.426 1169.51 111.793 1175H115.573C117.942 1173.52 120.741 1172.67 123.739 1172.67C130.098 1172.67 135.559 1176.51 137.926 1182H148.206C148.294 1182 148.376 1182.02 148.447 1182.06C148.917 1182.02 149.392 1182 149.873 1182C158.401 1182 165.315 1188.91 165.315 1197.44V1243.75L165.315 1243.83L165.315 1243.92V1244.59C165.315 1244.87 165.307 1245.15 165.292 1245.43C164.363 1277.55 135.478 1303.33 99.9817 1303.33C63.8991 1303.33 34.6484 1276.69 34.6484 1243.83C34.6484 1227.97 41.4638 1213.56 52.5732 1202.89C52.5455 1218.36 52.8067 1234.34 54.0107 1234.07C57.2347 1233.33 54.7158 1185.44 54.1264 1174.97Z" fill="white"/>
</g>
<circle cx="100" cy="780" r="100" fill="#F3D23B"/>
<path fill-rule="evenodd" clip-rule="evenodd" d="M71.7156 710.16C71.6886 710.081 71.7468 710 71.8294 710H121.001C121.054 710 121.101 710.034 121.116 710.085L143.702 783.055C143.726 783.132 143.668 783.21 143.587 783.21H110.851C110.811 783.21 110.782 783.248 110.793 783.287L129.568 849.378C129.605 849.506 129.437 849.59 129.357 849.483L56.3948 752.456C56.3352 752.377 56.3917 752.263 56.4909 752.263H86.2012C86.2425 752.263 86.2715 752.223 86.2578 752.183L71.7156 710.16Z" fill="white"/>
<circle cx="100" cy="553.333" r="100" fill="#5A5366"/>
<g clip-path="url(#clip7_6_190)">
<path fill-rule="evenodd" clip-rule="evenodd" d="M92.7208 607.159C95.3805 607.567 98.1045 607.778 100.878 607.778C130.41 607.778 154.35 583.837 154.35 554.306C154.35 524.774 130.41 500.833 100.878 500.833C98.897 500.833 96.9405 500.941 95.0152 501.151C109.665 512.25 119.35 531.475 119.35 553.333C119.35 576.313 108.645 596.383 92.7208 607.159ZM99.9059 623.333C138.566 623.333 169.906 591.993 169.906 553.333C169.906 514.673 138.566 483.333 99.9059 483.333C61.246 483.333 29.906 514.673 29.906 553.333C29.906 591.993 61.246 623.333 99.9059 623.333Z" fill="white"/>
</g>
<circle cx="100" cy="326.667" r="100" fill="#0A6CC4"/>
<g clip-path="url(#clip8_6_190)">
<path fill-rule="evenodd" clip-rule="evenodd" d="M106.754 326.361C107.703 325.782 108.508 324.57 109.157 323.222C117.701 326.714 123.705 334.965 123.705 344.588C123.705 357.371 113.109 367.734 100.039 367.734C94.6734 367.734 89.725 365.987 85.7556 363.044C84.4534 362.428 83.3821 361.836 82.5055 361.351C81.1457 360.599 80.254 360.106 79.6956 360.183C78.0635 360.408 78.5373 361.91 78.968 363.274C79.2603 364.201 79.5329 365.064 79.111 365.42C78.6697 365.793 77.2402 364.43 75.5697 362.837C73.2958 360.669 70.5757 358.076 69.293 358.855C68.2788 359.471 69.2634 361.142 70.4688 363.187L70.5582 363.339C71.0673 364.204 71.6574 365.084 72.1958 365.887C73.2904 367.52 74.1719 368.836 73.7309 369.058C73.1977 369.328 69.4827 366.82 66.3522 363.339C65.1438 361.996 63.9735 360.539 62.8858 359.186V359.186C60.505 356.223 58.5214 353.756 57.408 354.048C56.0686 354.399 57.0818 357.162 58.5707 359.821C59.2668 361.064 60.0858 362.33 60.7948 363.426V363.427C61.8976 365.131 62.7346 366.425 62.4311 366.584C62.0214 366.798 58.4173 363.284 55.9693 358.855C54.5153 356.224 53.2944 353.317 52.306 350.963C51.2341 348.411 50.4356 346.51 49.9098 346.318C48.0831 345.654 48.0831 349.378 48.8158 354.754C48.9113 355.455 49.0536 356.19 49.2289 356.939C56.3339 379.928 78.16 396.667 103.983 396.667C135.57 396.667 161.176 371.623 161.176 340.73C161.176 311.327 137.98 287.222 108.509 284.966C108.547 283.581 109.27 280.834 109.27 280.834C109.27 280.834 114.472 268.246 114.747 265.556C114.765 265.378 114.787 265.184 114.81 264.977C115.134 262.071 115.737 256.667 111.088 256.667C108.605 256.667 107.451 258.514 106.13 260.626C105.624 261.437 105.092 262.287 104.452 263.087C99.8392 268.847 92.0834 276.039 87.6857 279.871C78.3905 287.971 69.2708 294.627 63.9519 298.51L63.9516 298.51C61.5325 300.276 59.8998 301.467 59.3945 301.96C55.5866 305.672 41.9333 330.3 41.9333 330.3C41.9333 330.3 37.518 338.201 39.0874 339.803C40.6568 341.406 44.4414 341.038 44.4414 341.038C44.4414 341.038 95.2846 329.374 99.8365 328.455C101.062 328.207 101.927 328.064 102.591 327.954C104.395 327.656 104.718 327.603 106.754 326.361ZM70.8064 311.372C68.0773 313.966 63.5511 320.158 63.5511 320.158C63.5511 320.158 71.9631 320.676 76.5959 316.272C81.2291 311.868 80.1676 304.363 80.1676 304.363C80.1676 304.363 73.5354 308.778 70.8064 311.372Z" fill="white"/>
</g>
<circle cx="100" cy="100" r="100" fill="#8FC12C"/>
<path fill-rule="evenodd" clip-rule="evenodd" d="M123.57 30.1371C123.672 29.9917 123.872 29.9563 124.017 30.0581L133.958 37.0186C134.103 37.1204 134.139 37.3208 134.037 37.4662L120.201 57.2254C126.928 59.3743 131.51 61.6922 131.51 61.6922C131.51 61.6922 120.309 80.9592 101.311 80.9592C82.3127 80.9592 68.8128 63.002 68.8128 63.002C68.8128 63.002 73.5996 59.9471 80.6953 57.3271L65.5195 39.2415C65.4055 39.1056 65.4233 38.9029 65.5592 38.7888L74.8552 30.9884C74.9914 30.8743 75.194 30.892 75.308 31.028L94.523 53.9275C96.1683 53.7414 97.8445 53.6374 99.536 53.6374C101.967 53.6374 104.395 53.8222 106.766 54.1359L123.57 30.1371ZM127.328 81.8716C132.398 78.2508 140.07 68.8002 140.07 68.8002C140.07 68.8002 159.665 84.3288 159.665 117.255C159.665 150.181 125.788 169.998 125.788 169.998C125.788 169.998 109.601 153.651 105.628 132.93C101.655 112.209 111.506 89.2 111.506 89.2C111.506 89.2 122.258 85.4925 127.328 81.8716ZM72.7276 81.8716C67.6578 78.2508 59.9862 68.8002 59.9862 68.8002C59.9862 68.8002 40.3906 84.3288 40.3906 117.255C40.3906 150.181 74.2684 169.998 74.2684 169.998C74.2684 169.998 90.4546 153.651 94.4282 132.93C98.4015 112.209 88.5504 89.2 88.5504 89.2C88.5504 89.2 77.7977 85.4925 72.7276 81.8716Z" fill="white"/>
<circle cx="100" cy="1006.67" r="100" fill="#EC8EE6"/>
<g clip-path="url(#clip9_6_190)">
<path fill-rule="evenodd" clip-rule="evenodd" d="M58.0891 1047.68L80.5444 1041.17L99.9393 1076.63C99.9647 1076.67 100.031 1076.67 100.056 1076.63L119.451 1041.17L141.906 1047.68C141.957 1047.69 142.003 1047.64 141.988 1047.59L135.476 1025.58L169.961 1006.72C170.007 1006.7 170.007 1006.63 169.961 1006.61L135.192 987.59L141.988 964.619C142.003 964.568 141.957 964.522 141.906 964.536L118.924 971.2L100.056 936.701C100.031 936.655 99.9647 936.655 99.9396 936.701L81.0713 971.2L58.0891 964.536C58.0388 964.522 57.9921 964.568 58.0071 964.619L64.8034 987.59L30.0345 1006.61C29.9885 1006.63 29.9885 1006.7 30.0345 1006.72L64.519 1025.58L58.0071 1047.59C57.9921 1047.64 58.0388 1047.69 58.0891 1047.68ZM75.5142 1006.91L91.4225 1015.61L100.123 1031.51C100.148 1031.56 100.214 1031.56 100.24 1031.51L108.94 1015.61L124.848 1006.91C124.894 1006.88 124.894 1006.81 124.848 1006.79L108.94 998.089L100.24 982.181C100.214 982.135 100.148 982.135 100.123 982.181L91.4225 998.089L75.5142 1006.79C75.4683 1006.81 75.4683 1006.88 75.5142 1006.91Z" fill="white"/>
</g>
<defs>
<clipPath id="clip0_6_190">
<rect width="140" height="140" fill="white" transform="translate(30 3883.33)"/>
</clipPath>
<clipPath id="clip1_6_190">
<rect width="140" height="140" fill="white" transform="translate(30 3203.33)"/>
</clipPath>
<clipPath id="clip2_6_190">
<rect width="140" height="140" fill="white" transform="translate(30 3430)"/>
</clipPath>
<clipPath id="clip3_6_190">
<rect width="140" height="140" fill="white" transform="translate(30 2976.67)"/>
</clipPath>
<clipPath id="clip4_6_190">
<rect width="140" height="140" fill="white" transform="translate(30 2296.67)"/>
</clipPath>
<clipPath id="clip5_6_190">
<rect width="140" height="140" fill="white" transform="translate(30 2070)"/>
</clipPath>
<clipPath id="clip6_6_190">
<rect width="140" height="140" fill="white" transform="translate(30 1163.33)"/>
</clipPath>
<clipPath id="clip7_6_190">
<rect width="140" height="140" fill="white" transform="translate(30 483.333)"/>
</clipPath>
<clipPath id="clip8_6_190">
<rect width="140" height="140" fill="white" transform="translate(30 256.667)"/>
</clipPath>
<clipPath id="clip9_6_190">
<rect width="140" height="140" fill="white" transform="translate(30 936.667)"/>
</clipPath>
</defs>
</svg>
