<svg width="1000" height="300" viewBox="0 0 1000 300" fill="none" xmlns="http://www.w3.org/2000/svg">
<g clip-path="url(#clip0_6_196)">
<path d="M80 140C107.614 140 130 117.614 130 90C130 62.3858 107.614 40 80 40C52.3858 40 30 62.3858 30 90C30 117.614 52.3858 140 80 140Z" fill="#8FC12C"/>
<path fill-rule="evenodd" clip-rule="evenodd" d="M91.785 55.0686C91.836 54.9959 91.936 54.9782 92.0085 55.0291L96.979 58.5093C97.0515 58.5602 97.0695 58.6604 97.0185 58.7331L90.1005 68.6127C93.464 69.6872 95.755 70.8461 95.755 70.8461C95.755 70.8461 90.1545 80.4796 80.6555 80.4796C71.1564 80.4796 64.4064 71.501 64.4064 71.501C64.4064 71.501 66.7998 69.9736 70.3477 68.6636L62.7598 59.6208C62.7028 59.5528 62.7117 59.4515 62.7796 59.3944L67.4276 55.4942C67.4957 55.4372 67.597 55.446 67.654 55.514L77.2615 66.9638C78.0842 66.8707 78.9223 66.8187 79.768 66.8187C80.9835 66.8187 82.1975 66.9111 83.383 67.068L91.785 55.0686ZM93.664 80.9358C96.199 79.1254 100.035 74.4001 100.035 74.4001C100.035 74.4001 109.833 82.1644 109.833 98.6275C109.833 115.091 92.894 124.999 92.894 124.999C92.894 124.999 84.8005 116.826 82.814 106.465C80.8275 96.1045 85.753 84.6 85.753 84.6C85.753 84.6 91.129 82.7463 93.664 80.9358ZM66.3638 80.9358C63.8289 79.1254 59.9932 74.4001 59.9932 74.4001C59.9932 74.4001 50.1953 82.1644 50.1953 98.6275C50.1953 115.091 67.1342 124.999 67.1342 124.999C67.1342 124.999 75.2273 116.826 77.2141 106.465C79.2008 96.1045 74.2752 84.6 74.2752 84.6C74.2752 84.6 68.8989 82.7463 66.3638 80.9358Z" fill="white"/>
</g>
<g clip-path="url(#clip1_6_196)">
<path d="M200 139.668C227.614 139.668 250 117.394 250 89.9169C250 62.4401 227.614 40.1657 200 40.1657C172.386 40.1657 150 62.4401 150 89.9169C150 117.394 172.386 139.668 200 139.668Z" fill="#5A5366"/>
<mask id="mask0_6_196" style="mask-type:luminance" maskUnits="userSpaceOnUse" x="165" y="55" width="70" height="70">
<path d="M235 55.0912H165V124.743H235V55.0912Z" fill="white"/>
</mask>
<g mask="url(#mask0_6_196)">
<path fill-rule="evenodd" clip-rule="evenodd" d="M196.36 116.696C197.69 116.899 199.052 117.004 200.439 117.004C215.205 117.004 227.175 105.093 227.175 90.401C227.175 75.7083 215.205 63.7977 200.439 63.7977C199.449 63.7977 198.47 63.8513 197.508 63.9558C204.833 69.4774 209.675 79.0424 209.675 89.9169C209.675 101.35 204.323 111.335 196.36 116.696ZM199.953 124.743C219.283 124.743 234.953 109.151 234.953 89.9169C234.953 70.6833 219.283 55.0912 199.953 55.0912C180.623 55.0912 164.953 70.6833 164.953 89.9169C164.953 109.151 180.623 124.743 199.953 124.743Z" fill="white"/>
</g>
</g>
<g clip-path="url(#clip2_6_196)">
<path d="M320 139.834C347.614 139.834 370 117.56 370 90.0831C370 62.6062 347.614 40.3318 320 40.3318C292.386 40.3318 270 62.6062 270 90.0831C270 117.56 292.386 139.834 320 139.834Z" fill="#0A6CC4"/>
<mask id="mask1_6_196" style="mask-type:luminance" maskUnits="userSpaceOnUse" x="285" y="55" width="70" height="70">
<path d="M355 55.2571H285V124.909H355V55.2571Z" fill="white"/>
</mask>
<g mask="url(#mask1_6_196)">
<path fill-rule="evenodd" clip-rule="evenodd" d="M323.377 89.9309C323.851 89.6428 324.254 89.0397 324.578 88.3693C328.85 90.1065 331.852 94.2115 331.852 98.999C331.852 105.359 326.554 110.514 320.019 110.514C317.337 110.514 314.862 109.646 312.878 108.182C312.227 107.875 311.691 107.58 311.253 107.339C310.573 106.965 310.127 106.719 309.848 106.758C309.032 106.87 309.269 107.617 309.484 108.296C309.63 108.757 309.766 109.186 309.555 109.363C309.335 109.549 308.62 108.871 307.785 108.079C306.648 107 305.288 105.709 304.646 106.097C304.139 106.403 304.632 107.235 305.234 108.252L305.279 108.328C305.534 108.758 305.829 109.196 306.098 109.596C306.645 110.408 307.086 111.063 306.865 111.173C306.599 111.307 304.741 110.06 303.176 108.328C302.572 107.66 301.987 106.935 301.443 106.262C300.252 104.788 299.261 103.56 298.704 103.705C298.034 103.881 298.541 105.255 299.285 106.578C299.633 107.196 300.043 107.826 300.397 108.372C300.949 109.219 301.367 109.863 301.216 109.942C301.011 110.049 299.209 108.301 297.985 106.097C297.258 104.788 296.647 103.342 296.153 102.171C295.617 100.901 295.218 99.9552 294.955 99.8597C294.042 99.5294 294.042 101.382 294.408 104.057C294.456 104.405 294.527 104.772 294.614 105.144C298.167 116.581 309.08 124.909 321.991 124.909C337.785 124.909 350.588 112.449 350.588 97.0796C350.588 82.4512 338.99 70.459 324.254 69.3362C324.273 68.6471 324.635 67.2806 324.635 67.2806C324.635 67.2806 327.236 61.0179 327.373 59.6797C327.382 59.5909 327.393 59.4943 327.405 59.3915C327.567 57.9456 327.868 55.2571 325.544 55.2571C324.302 55.2571 323.725 56.1759 323.065 57.2269C322.812 57.6303 322.546 58.0532 322.226 58.4511C319.92 61.3167 316.042 64.8952 313.843 66.8017C309.195 70.8313 304.635 74.143 301.976 76.0745C300.766 76.9529 299.95 77.546 299.697 77.791C297.793 79.6379 290.967 91.8906 290.967 91.8906C290.967 91.8906 288.759 95.8214 289.544 96.6184C290.328 97.4159 292.221 97.2333 292.221 97.2333C292.221 97.2333 317.642 91.4304 319.918 90.9727C320.531 90.8493 320.963 90.7781 321.295 90.7234C322.197 90.5756 322.359 90.5488 323.377 89.9309ZM305.403 82.4735C304.039 83.7641 301.776 86.8447 301.776 86.8447C301.776 86.8447 305.982 87.1025 308.298 84.9116C310.615 82.7205 310.084 78.9867 310.084 78.9867C310.084 78.9867 306.768 81.1829 305.403 82.4735Z" fill="white"/>
</g>
</g>
<g clip-path="url(#clip3_6_196)">
<path d="M440 140C467.614 140 490 117.614 490 90C490 62.3858 467.614 40 440 40C412.386 40 390 62.3858 390 90C390 117.614 412.386 140 440 140Z" fill="#F3D23B"/>
<path fill-rule="evenodd" clip-rule="evenodd" d="M425.858 55.0798C425.844 55.0407 425.873 55 425.915 55H450.5C450.527 55 450.55 55.0171 450.558 55.0423L461.851 91.5275C461.863 91.566 461.834 91.605 461.793 91.605H445.425C445.405 91.605 445.391 91.624 445.396 91.6435L454.784 124.689C454.802 124.753 454.718 124.795 454.678 124.742L418.197 76.2279C418.168 76.1883 418.196 76.1316 418.245 76.1316H433.101C433.121 76.1316 433.136 76.1113 433.129 76.0918L425.858 55.0798Z" fill="white"/>
</g>
<g clip-path="url(#clip4_6_196)">
<path d="M560 139.834C587.614 139.834 610 117.56 610 90.0831C610 62.6062 587.614 40.3318 560 40.3318C532.386 40.3318 510 62.6062 510 90.0831C510 117.56 532.386 139.834 560 139.834Z" fill="#EC8EE6"/>
<mask id="mask2_6_196" style="mask-type:luminance" maskUnits="userSpaceOnUse" x="525" y="55" width="70" height="70">
<path d="M595 55.257H525V124.909H595V55.257Z" fill="white"/>
</mask>
<g mask="url(#mask2_6_196)">
<path fill-rule="evenodd" clip-rule="evenodd" d="M539.045 110.486L550.272 107.246L559.97 124.89C559.982 124.912 560.015 124.912 560.028 124.89L569.725 107.246L580.953 110.486C580.979 110.493 581.002 110.47 580.994 110.445L577.738 99.494L594.98 90.1105C595.003 90.098 595.003 90.0652 594.98 90.0527L577.596 80.5922L580.994 69.1636C581.002 69.1386 580.979 69.1153 580.953 69.1225L569.462 72.4379L560.028 55.2742C560.015 55.2513 559.982 55.2513 559.97 55.2742L550.536 72.4379L539.045 69.1225C539.019 69.1153 538.996 69.1386 539.004 69.1636L542.402 80.5922L525.017 90.0527C524.994 90.0652 524.994 90.098 525.017 90.1105L542.259 99.494L539.004 110.445C538.996 110.47 539.019 110.493 539.045 110.486ZM547.757 90.202L555.711 94.5309L560.062 102.445C560.074 102.468 560.107 102.468 560.12 102.445L564.47 94.5309L572.424 90.202C572.447 90.1896 572.447 90.1567 572.424 90.1443L564.47 85.8155L560.12 77.901C560.107 77.8781 560.074 77.8781 560.062 77.901L555.711 85.8155L547.757 90.1443C547.734 90.1567 547.734 90.1896 547.757 90.202Z" fill="white"/>
</g>
</g>
<g clip-path="url(#clip5_6_196)">
<path d="M680 140C707.614 140 730 117.614 730 90C730 62.3858 707.614 40 680 40C652.386 40 630 62.3858 630 90C630 117.614 652.386 140 680 140Z" fill="#FE9C54"/>
<path fill-rule="evenodd" clip-rule="evenodd" d="M693.16 109.058C694.025 105.895 692.347 99.394 692.347 99.394C692.347 99.394 691.129 104.691 689.226 106.648C687.603 108.318 685.615 109.475 682.763 109.78C685.095 108.647 686.698 106.286 686.698 103.556C686.698 99.7245 683.538 96.6185 679.64 96.6185C675.742 96.6185 672.582 99.7245 672.582 103.556C672.582 104.603 672.818 105.595 673.24 106.485C670.802 104.543 670.419 101.429 670.419 101.429C670.419 101.429 667.697 112.731 675.198 118.048C682.699 123.365 697.393 118.795 697.393 118.795C697.393 118.795 676.365 133.591 660.782 117.488C647.359 103.615 657.279 85.352 657.279 85.352C657.279 85.352 656.85 87.0462 656.85 89.0129C656.85 90.9795 657.917 92.476 657.917 92.476C657.917 92.476 661.098 85.7714 663.573 83.0448C665.916 80.4644 668.853 78.3715 671.389 76.5639C673.342 75.1723 675.058 73.9498 676.082 72.804C681.726 66.4938 678.265 55 678.265 55C678.265 55 684.627 60.6082 686.403 67.8512C687.08 70.6122 686.644 73.7536 686.255 76.5628C685.623 81.1232 685.112 84.8081 689.679 84.569C697.059 84.1825 690.646 72.804 690.646 72.804C690.646 72.804 707.387 81.6032 706.136 96.9925C704.885 112.382 687.838 115.881 687.838 115.881C687.838 115.881 692.295 112.22 693.16 109.058Z" fill="white"/>
</g>
<g clip-path="url(#clip6_6_196)">
<path d="M800 139.834C827.614 139.834 850 117.56 850 90.0831C850 62.6062 827.614 40.3318 800 40.3318C772.386 40.3318 750 62.6062 750 90.0831C750 117.56 772.386 139.834 800 139.834Z" fill="#8FA8DD"/>
<path fill-rule="evenodd" clip-rule="evenodd" d="M789.433 120.247C799.688 120.247 808.466 114.576 812.091 106.538C812.135 106.439 797.54 110.312 798.005 108.943C798.213 108.332 807.16 105.08 813.679 101.286C817.425 99.106 819.15 94.4905 819.15 94.4905C819.15 94.4905 812.838 97.5398 809.647 98.3134C803.217 99.8721 797.557 99.7045 797.557 99.5423C797.557 99.191 806.955 97.4139 820.019 89.493C826.163 85.7673 827.832 79.3498 827.832 79.3498C827.832 79.3498 821.077 83.3537 816.993 84.6756C807.308 87.8104 798.471 88.755 798.471 88.3308C798.471 87.4227 806.248 85.2946 814.494 81.3189C818.782 79.2518 822.495 76.5511 826.798 73.5478C833.838 68.634 835 59.8823 835 59.8823C835 59.8823 828.055 64.3389 824.667 65.8189C810.684 71.926 798.336 75.1294 789.433 75.8229C775.994 76.8699 765 86.1998 765 98.3134C765 110.427 775.939 120.247 789.433 120.247Z" fill="white"/>
</g>
<g clip-path="url(#clip7_6_196)">
<path d="M920 140C947.614 140 970 117.614 970 90C970 62.3858 947.614 40 920 40C892.386 40 870 62.3858 870 90C870 117.614 892.386 140 920 140Z" fill="#5268AC"/>
<mask id="mask3_6_196" style="mask-type:luminance" maskUnits="userSpaceOnUse" x="885" y="55" width="70" height="70">
<path d="M955 55H885V125H955V55Z" fill="white"/>
</mask>
<g mask="url(#mask3_6_196)">
<path fill-rule="evenodd" clip-rule="evenodd" d="M935.442 124.757C929.128 125.081 921.9 125.081 919.443 124.757C900.281 122.236 885 108.227 885 89.2891C885 70.3518 900.67 55 920 55C939.33 55 955 70.3518 955 89.2891C955 98.0965 951.61 106.128 946.039 112.201C944.526 113.85 946.602 115.007 948.711 116.182C950.779 117.335 952.88 118.505 951.659 120.175C950.314 122.016 943.022 124.369 935.442 124.757ZM915.078 85.0029C915.078 87.9618 912.63 90.3605 909.609 90.3605C906.589 90.3605 904.141 87.9618 904.141 85.0029C904.141 83.0184 905.242 81.2861 906.878 80.3601C906.972 82.9401 909.094 85.0028 911.697 85.0028L915.078 85.0029ZM932.028 80.3601C931.934 82.9401 929.812 85.0028 927.209 85.0028H923.828C923.828 87.9616 926.277 90.3605 929.297 90.3605C932.317 90.3605 934.766 87.9618 934.766 85.0029C934.766 83.0184 933.664 81.2861 932.028 80.3601Z" fill="white"/>
</g>
</g>
<g clip-path="url(#clip8_6_196)">
<path d="M80 259.668C107.614 259.668 130 237.394 130 209.917C130 182.44 107.614 160.166 80 160.166C52.3858 160.166 30 182.44 30 209.917C30 237.394 52.3858 259.668 80 259.668Z" fill="#63BB5B"/>
<path fill-rule="evenodd" clip-rule="evenodd" d="M58.318 235.036C58.0778 234.811 57.8401 234.582 57.6053 234.349C45.207 222.012 45.207 202.01 57.6053 189.674C70.0035 177.337 109.509 176.512 109.509 176.512C109.509 176.512 114.901 222.012 102.503 234.349C91.492 245.305 74.4048 246.531 62.034 238.026L72.0019 225.854L87.9365 222.431L74.9292 221.137L83.1955 212.763L92.605 210.711L85.1645 208.519L92.605 195.163L82.0215 206.975L77.9347 201.237L79.3734 210.711L72.0019 218.98L68.5849 208.519V222.431L58.318 235.036Z" fill="white"/>
</g>
<g clip-path="url(#clip9_6_196)">
<path d="M200 259.834C227.614 259.834 250 237.56 250 210.083C250 182.606 227.614 160.332 200 160.332C172.386 160.332 150 182.606 150 210.083C150 237.56 172.386 259.834 200 259.834Z" fill="#D97745"/>
<mask id="mask4_6_196" style="mask-type:luminance" maskUnits="userSpaceOnUse" x="165" y="175" width="70" height="70">
<path d="M235 175.257H165V244.909H235V175.257Z" fill="white"/>
</mask>
<g mask="url(#mask4_6_196)">
<path fill-rule="evenodd" clip-rule="evenodd" d="M180.417 235.081C180.398 235.081 180.385 235.062 180.391 235.044L198.262 184.798C198.266 184.787 198.277 184.78 198.288 184.78H217.366C217.378 184.78 217.389 184.787 217.392 184.798L234.998 235.044C235.005 235.062 234.991 235.081 234.972 235.081H180.954H180.417ZM165.028 235.277C165.008 235.277 164.995 235.258 165.002 235.24L178.31 199.888C178.314 199.877 178.324 199.87 178.336 199.87H189.899C189.918 199.87 189.931 199.889 189.925 199.906L177.056 235.259C177.052 235.27 177.042 235.277 177.03 235.277H165.028Z" fill="white"/>
</g>
</g>
<g clip-path="url(#clip10_6_196)">
<path d="M320 259.668C347.614 259.668 370 237.394 370 209.917C370 182.44 347.614 160.166 320 160.166C292.386 160.166 270 182.44 270 209.917C270 237.394 292.386 259.668 320 259.668Z" fill="#74CEC0"/>
<path fill-rule="evenodd" clip-rule="evenodd" d="M337.541 180.402L337.757 199.223L321.259 207.104L321.055 189.333L337.541 180.402Z" fill="white"/>
<path fill-rule="evenodd" clip-rule="evenodd" d="M354.079 210.059L337.748 219.355L321.406 210.045L337.739 201.508L354.079 210.059Z" fill="white"/>
<path fill-rule="evenodd" clip-rule="evenodd" d="M318.502 210.059L302.17 219.355L285.828 210.045L302.161 201.508L318.502 210.059Z" fill="white"/>
<path fill-rule="evenodd" clip-rule="evenodd" d="M301.986 180.325L318.938 188.679L318.504 206.883L302.499 198.996L301.986 180.325Z" fill="white"/>
<path fill-rule="evenodd" clip-rule="evenodd" d="M338.003 239.509L321.051 231.155L321.485 212.951L337.49 220.838L338.003 239.509Z" fill="white"/>
<path fill-rule="evenodd" clip-rule="evenodd" d="M302.572 239.678L302.356 220.857L318.854 212.977L319.058 230.747L302.572 239.678Z" fill="white"/>
</g>
<g clip-path="url(#clip11_6_196)">
<path d="M440 259.668C467.614 259.668 490 237.394 490 209.917C490 182.44 467.614 160.166 440 160.166C412.386 160.166 390 182.44 390 209.917C390 237.394 412.386 259.668 440 259.668Z" fill="#F97176"/>
<mask id="mask5_6_196" style="mask-type:luminance" maskUnits="userSpaceOnUse" x="405" y="175" width="70" height="70">
<path d="M475 175.091H405V244.743H475V175.091Z" fill="white"/>
</mask>
<g mask="url(#mask5_6_196)">
<path fill-rule="evenodd" clip-rule="evenodd" d="M467.333 232.932C467.333 232.932 458.507 239.977 440.942 237.062C427.616 234.85 420.509 220.233 420.509 212.377C420.509 193.749 434.365 189.51 443.732 189.51C453.1 189.51 459.211 198.597 459.211 205.633C459.211 212.669 454.209 218.823 446.426 218.823C438.644 218.823 436.339 213.386 436.339 208.388C436.339 203.389 440.403 201.628 444.109 201.628C447.816 201.628 449.085 204.777 449.085 207.483C449.085 210.19 446.975 211.159 445.215 211.159C443.454 211.159 443.28 210.275 442.607 209.347C441.933 208.418 443.466 204.903 440.942 204.903C438.419 204.903 437.948 208.944 437.948 208.944C437.948 208.944 438.868 216.743 446.426 216.609C453.985 216.474 457.571 210.66 456.528 204.903C455.486 199.147 449.872 193.03 440.018 194.266C430.164 195.502 426.141 205.409 427.914 215.996C429.688 226.583 442.434 232.717 452.456 230.51C462.479 228.303 472.461 221.084 472.461 202.779C472.461 184.475 456.529 173.472 437.531 175.286C418.533 177.099 406.74 193.625 407.495 213.482C408.25 233.339 427.186 244.154 443.198 244.711C459.211 245.269 469.027 236.046 469.027 236.046C469.027 236.046 471.234 234.087 470.369 232.557C469.503 231.027 467.333 232.932 467.333 232.932Z" fill="white"/>
</g>
</g>
<g clip-path="url(#clip12_6_196)">
<path d="M560 260C587.614 260 610 237.614 610 210C610 182.386 587.614 160 560 160C532.386 160 510 182.386 510 210C510 237.614 532.386 260 560 260Z" fill="#C6B78B"/>
<mask id="mask6_6_196" style="mask-type:luminance" maskUnits="userSpaceOnUse" x="525" y="175" width="70" height="70">
<path d="M595 175H525V245H595V175Z" fill="white"/>
</mask>
<g mask="url(#mask6_6_196)">
<path fill-rule="evenodd" clip-rule="evenodd" d="M579.023 208.463C579.019 208.457 579.017 208.451 579.019 208.444L583.484 182.404C583.486 182.392 583.496 182.383 583.508 182.383H584.922C584.933 182.383 584.942 182.39 584.946 182.4L595.007 214.256C595.01 214.266 595.006 214.277 594.998 214.283L587.58 220.075C587.569 220.084 587.553 220.081 587.545 220.07L579.023 208.463ZM524.863 225.726C524.863 225.737 524.87 225.746 524.88 225.749L540.172 230.749C540.18 230.752 540.188 230.751 540.194 230.746L574.376 207.149C574.381 207.145 574.385 207.138 574.386 207.132L578.051 182.537C578.053 182.522 578.042 182.508 578.026 182.508H547.751C547.743 182.508 547.736 182.512 547.732 182.517L524.869 210.097C524.865 210.102 524.863 210.107 524.863 210.113V225.726ZM546.545 232.023L563.25 237.496C563.258 237.498 563.266 237.497 563.273 237.493L583.162 223.225C583.173 223.217 583.176 223.203 583.169 223.191L575.713 212.096C575.705 212.084 575.69 212.081 575.678 212.089L546.545 232.023Z" fill="white"/>
</g>
</g>
<g clip-path="url(#clip13_6_196)">
<path d="M680 259.834C707.614 259.834 730 237.56 730 210.083C730 182.606 707.614 160.332 680 160.332C652.386 160.332 630 182.606 630 210.083C630 237.56 652.386 259.834 680 259.834Z" fill="#5A8EA1"/>
<path fill-rule="evenodd" clip-rule="evenodd" d="M645.007 209.883C644.998 209.867 644.998 209.847 645.007 209.831L662.609 179.907C662.618 179.892 662.635 179.882 662.653 179.882H697.54C697.559 179.882 697.575 179.892 697.585 179.908L714.993 209.831C715.002 209.847 715.002 209.867 714.993 209.882L697.585 239.773C697.575 239.788 697.559 239.798 697.54 239.798H662.653C662.635 239.798 662.618 239.788 662.609 239.773L645.007 209.883ZM696.217 209.84C696.217 218.749 688.959 225.971 680.006 225.971C671.052 225.971 663.794 218.749 663.794 209.84C663.794 200.931 671.052 193.709 680.006 193.709C688.959 193.709 696.217 200.931 696.217 209.84Z" fill="white"/>
</g>
<g clip-path="url(#clip14_6_196)">
<path d="M850 209.917C850 237.394 827.614 259.668 800 259.668C772.386 259.668 750 237.394 750 209.917C750 182.44 772.386 160.166 800 160.166C827.614 160.166 850 182.44 850 209.917Z" fill="#4C8FD5" fill-opacity="0.835294"/>
<mask id="mask7_6_196" style="mask-type:luminance" maskUnits="userSpaceOnUse" x="765" y="175" width="70" height="70">
<path d="M835 175.091H765V244.743H835V175.091Z" fill="white"/>
</mask>
<g mask="url(#mask7_6_196)">
<path fill-rule="evenodd" clip-rule="evenodd" d="M822.719 222.23C822.719 234.662 812.553 244.74 800.012 244.74C787.471 244.74 777.305 234.662 777.305 222.23C777.305 210.14 798.784 176.934 799.961 175.122C799.988 175.081 800.036 175.081 800.062 175.122C801.24 176.934 822.719 210.14 822.719 222.23ZM796.227 237.523C784.704 235.015 786.676 222.314 786.676 222.314C786.676 222.314 789.822 229.981 797.458 232.465C805.093 234.948 814.321 231.305 814.321 231.305C814.321 231.305 807.749 240.032 796.227 237.523Z" fill="white"/>
</g>
</g>
<g clip-path="url(#clip15_6_196)">
<path d="M920 259.834C947.614 259.834 970 237.56 970 210.083C970 182.606 947.614 160.332 920 160.332C892.386 160.332 870 182.606 870 210.083C870 237.56 892.386 259.834 920 259.834Z" fill="#AB6AC8"/>
<mask id="mask8_6_196" style="mask-type:luminance" maskUnits="userSpaceOnUse" x="885" y="175" width="70" height="70">
<path d="M955 175.257H885V244.909H955V175.257Z" fill="white"/>
</mask>
<g mask="url(#mask8_6_196)">
<path fill-rule="evenodd" clip-rule="evenodd" d="M943.491 228.781C950.56 223.157 955 215.031 955 205.995C955 189.019 939.33 175.257 920 175.257C900.67 175.257 885 189.019 885 205.995C885 214.705 889.125 222.569 895.754 228.163C895.352 229.543 895.132 231.044 895.132 232.613C895.132 239.404 899.255 244.909 904.342 244.909C907.647 244.909 910.546 242.585 912.171 239.094C913.796 242.585 916.695 244.909 920 244.909C923.013 244.909 925.688 242.978 927.368 239.992C929.049 242.978 931.724 244.909 934.737 244.909C939.823 244.909 943.948 239.404 943.948 232.613C943.948 231.276 943.787 229.987 943.491 228.781ZM940.263 206.604C940.263 215.223 930.985 222.21 919.54 222.21C908.094 222.21 898.816 215.223 898.816 206.604C898.816 197.986 908.094 190.999 919.54 190.999C930.985 190.999 940.263 197.986 940.263 206.604Z" fill="white"/>
</g>
</g>
<defs>
<clipPath id="clip0_6_196">
<rect width="100" height="100" fill="white" transform="translate(30 40)"/>
</clipPath>
<clipPath id="clip1_6_196">
<rect width="100" height="100" fill="white" transform="translate(150 40)"/>
</clipPath>
<clipPath id="clip2_6_196">
<rect width="100" height="100" fill="white" transform="translate(270 40)"/>
</clipPath>
<clipPath id="clip3_6_196">
<rect width="100" height="100" fill="white" transform="translate(390 40)"/>
</clipPath>
<clipPath id="clip4_6_196">
<rect width="100" height="100" fill="white" transform="translate(510 40)"/>
</clipPath>
<clipPath id="clip5_6_196">
<rect width="100" height="100" fill="white" transform="translate(630 40)"/>
</clipPath>
<clipPath id="clip6_6_196">
<rect width="100" height="100" fill="white" transform="translate(750 40)"/>
</clipPath>
<clipPath id="clip7_6_196">
<rect width="100" height="100" fill="white" transform="translate(870 40)"/>
</clipPath>
<clipPath id="clip8_6_196">
<rect width="100" height="100" fill="white" transform="translate(30 160)"/>
</clipPath>
<clipPath id="clip9_6_196">
<rect width="100" height="100" fill="white" transform="translate(150 160)"/>
</clipPath>
<clipPath id="clip10_6_196">
<rect width="100" height="100" fill="white" transform="translate(270 160)"/>
</clipPath>
<clipPath id="clip11_6_196">
<rect width="100" height="100" fill="white" transform="translate(390 160)"/>
</clipPath>
<clipPath id="clip12_6_196">
<rect width="100" height="100" fill="white" transform="translate(510 160)"/>
</clipPath>
<clipPath id="clip13_6_196">
<rect width="100" height="100" fill="white" transform="translate(630 160)"/>
</clipPath>
<clipPath id="clip14_6_196">
<rect width="100" height="100" fill="white" transform="translate(750 160)"/>
</clipPath>
<clipPath id="clip15_6_196">
<rect width="100" height="100" fill="white" transform="translate(870 160)"/>
</clipPath>
</defs>
</svg>
